<?xml version="1.0" encoding="UTF-8"?>
<svg width="1406px" height="165px" viewBox="0 0 1406 165" xmlns="http://www.w3.org/2000/svg" xmlns:xlink="http://www.w3.org/1999/xlink" version="1.1">
 <!-- Generated by Pixelmator Pro 2.0.3 -->
 <g id="shield">
  <g id="Color">
   <g id="group">
    <path id="Path" d="M499.372 49.029 C482.865 49.029 467.116 42.101 455.961 29.933 L453.111 26.824 450.262 29.935 C439.107 42.102 423.357 49.029 406.85 49.029 L406.85 70.77 C406.85 92.86 418.443 113.338 437.39 124.709 L453.111 134.15 468.827 124.712 C487.775 113.344 499.369 92.868 499.372 70.772 Z" fill="#c4f236" fill-opacity="1" stroke="none"/>
    <path id="Path-1" d="M429.056 47.96 L429.056 44.662 C422.006 47.541 414.465 49.024 406.85 49.029 L406.85 70.77 C406.85 92.86 418.443 113.338 437.39 124.709 L453.111 134.15 468.827 124.712 C473.24 122.058 477.309 118.871 480.944 115.223 450.375 107.194 429.062 79.565 429.056 47.96 Z" fill="#a1d51c" fill-opacity="1" stroke="none"/>
    <path id="Path-2" d="M488.27 71.235 C484.036 71.24 480.169 68.833 478.302 65.033 476.436 61.232 476.897 56.701 479.49 53.354 473.997 51.626 468.752 49.194 463.885 46.119 462.672 51.084 458.223 54.578 453.111 54.578 448 54.578 443.551 51.084 442.338 46.119 437.77 49.008 432.867 51.33 427.738 53.035 429.917 57.075 429.381 62.039 426.391 65.521 423.401 69.003 418.574 70.282 414.252 68.738 L414.252 70.774 C414.308 90.258 424.525 108.301 441.204 118.373 L442.231 118.989 C443.28 113.812 447.831 110.091 453.112 110.091 458.394 110.091 462.945 113.812 463.994 118.989 L465.019 118.373 C481.699 108.301 491.915 90.257 491.971 70.772 L491.971 70.587 C490.783 71.012 489.531 71.232 488.27 71.235 Z" fill="#aae1f9" fill-opacity="1" stroke="none"/>
    <path id="Path-3" d="M429.217 52.495 C428.723 52.68 428.238 52.865 427.736 53.037 429.913 57.076 429.377 62.039 426.388 65.52 423.398 69.001 418.574 70.28 414.252 68.738 L414.252 70.774 C414.308 90.258 424.525 108.301 441.204 118.373 L442.231 118.989 C443.28 113.812 447.83 110.091 453.112 110.091 458.394 110.091 462.945 113.812 463.994 118.989 L465.019 118.373 C467.817 116.684 470.458 114.749 472.911 112.59 447.971 102.667 430.967 79.279 429.217 52.495 Z" fill="#57b7eb" fill-opacity="1" stroke="none"/>
    <path id="Path-4" d="M456.812 121.196 C456.812 123.24 455.155 124.897 453.111 124.897 451.068 124.897 449.411 123.24 449.411 121.196 449.411 119.153 451.068 117.496 453.111 117.496 455.155 117.496 456.812 119.153 456.812 121.196 Z" fill="#fcbc04" fill-opacity="1" stroke="none"/>
    <path id="Path-5" d="M456.812 43.478 C456.812 45.522 455.155 47.179 453.111 47.179 451.068 47.179 449.411 45.522 449.411 43.478 449.411 41.434 451.068 39.777 453.111 39.777 455.155 39.777 456.812 41.434 456.812 43.478 Z" fill="#f9e109" fill-opacity="1" stroke="none"/>
    <path id="Path-6" d="M491.971 60.132 C491.971 62.176 490.314 63.833 488.27 63.833 486.226 63.833 484.569 62.176 484.569 60.132 484.569 58.088 486.226 56.431 488.27 56.431 490.314 56.431 491.971 58.088 491.971 60.132 Z" fill="#f9e109" fill-opacity="1" stroke="none"/>
    <path id="Path-7" d="M421.654 58.281 C421.654 60.325 419.997 61.982 417.953 61.982 415.909 61.982 414.252 60.325 414.252 58.281 414.252 56.238 415.909 54.581 417.953 54.581 419.997 54.581 421.654 56.238 421.654 58.281 Z" fill="#fcbc04" fill-opacity="1" stroke="none"/>
    <path id="Path-8" d="M448.485 101.178 L431.607 84.299 439.457 76.449 448.485 85.477 466.766 67.197 474.615 75.046 Z" fill="#f9e109" fill-opacity="1" stroke="none"/>
    <g id="group-1">
     <path id="Path-9" d="M451.037 98.621 C445.133 93.078 440.24 86.548 436.578 79.325 L431.607 84.299 448.485 101.178 Z" fill="#fcbc04" fill-opacity="1" stroke="none"/>
     <path id="Path-10" d="M490.12 61.982 C488.863 61.988 487.69 61.352 487.008 60.295 486.326 59.239 486.23 57.908 486.753 56.764 485.243 57.435 484.361 59.025 484.591 60.66 484.82 62.296 486.106 63.581 487.742 63.811 489.377 64.04 490.967 63.158 491.638 61.649 491.161 61.867 490.644 61.98 490.12 61.982 Z" fill="#fcbc04" fill-opacity="1" stroke="none"/>
     <path id="Path-11" d="M454.962 45.328 C453.705 45.334 452.531 44.698 451.85 43.641 451.168 42.585 451.071 41.254 451.594 40.11 450.085 40.781 449.203 42.371 449.433 44.006 449.662 45.642 450.948 46.927 452.583 47.157 454.219 47.386 455.808 46.504 456.479 44.995 456.003 45.213 455.486 45.327 454.962 45.328 Z" fill="#fcbc04" fill-opacity="1" stroke="none"/>
    </g>
    <path id="Path-12" d="M419.804 60.132 C418.546 60.137 417.373 59.501 416.691 58.445 416.009 57.388 415.913 56.057 416.436 54.914 414.927 55.585 414.045 57.174 414.274 58.81 414.504 60.445 415.789 61.731 417.425 61.96 419.06 62.19 420.65 61.308 421.321 59.799 420.845 60.016 420.327 60.13 419.804 60.132 Z" fill="#e59730" fill-opacity="1" stroke="none"/>
    <path id="Path-13" d="M454.962 123.047 C453.705 123.052 452.531 122.416 451.85 121.36 451.168 120.303 451.071 118.972 451.594 117.829 450.085 118.5 449.203 120.089 449.433 121.725 449.662 123.36 450.948 124.646 452.583 124.875 454.219 125.105 455.808 124.223 456.479 122.714 456.003 122.931 455.486 123.045 454.962 123.047 Z" fill="#e59730" fill-opacity="1" stroke="none"/>
   </g>
  </g>
  <g id="Outline_copy">
   <g id="group-2">
    <path id="Path-14" d="M453.111 126.748 C450.866 126.748 448.842 125.395 447.983 123.321 447.123 121.246 447.598 118.859 449.186 117.271 450.774 115.683 453.161 115.208 455.236 116.068 457.31 116.927 458.663 118.951 458.663 121.196 458.663 122.669 458.078 124.081 457.037 125.122 455.996 126.163 454.584 126.748 453.111 126.748 Z M453.111 119.346 C452.363 119.346 451.688 119.797 451.402 120.488 451.115 121.18 451.274 121.976 451.803 122.505 452.332 123.034 453.128 123.192 453.82 122.906 454.511 122.62 454.962 121.945 454.962 121.196 454.962 120.706 454.767 120.235 454.42 119.888 454.073 119.541 453.602 119.346 453.111 119.346 Z" fill="#39519d" fill-opacity="1" stroke="none"/>
    <path id="Path-15" d="M453.111 49.029 C450.866 49.029 448.842 47.677 447.983 45.602 447.123 43.528 447.598 41.14 449.186 39.553 450.774 37.965 453.161 37.49 455.236 38.349 457.31 39.208 458.663 41.233 458.663 43.478 458.663 44.95 458.078 46.362 457.037 47.403 455.996 48.444 454.584 49.029 453.111 49.029 Z M453.111 41.627 C452.363 41.627 451.688 42.078 451.402 42.77 451.115 43.461 451.274 44.257 451.803 44.786 452.332 45.316 453.128 45.474 453.82 45.188 454.511 44.901 454.962 44.226 454.962 43.478 454.962 42.987 454.767 42.516 454.42 42.169 454.073 41.822 453.602 41.627 453.111 41.627 Z" fill="#39519d" fill-opacity="1" stroke="none"/>
    <path id="Path-16" d="M488.27 65.683 C486.025 65.683 484 64.331 483.141 62.256 482.282 60.182 482.757 57.794 484.344 56.207 485.932 54.619 488.32 54.144 490.394 55.003 492.469 55.862 493.821 57.887 493.821 60.132 493.821 61.604 493.236 63.016 492.195 64.057 491.154 65.098 489.742 65.683 488.27 65.683 Z M488.27 58.281 C487.521 58.281 486.847 58.732 486.56 59.424 486.274 60.115 486.432 60.911 486.961 61.44 487.491 61.97 488.287 62.128 488.978 61.841 489.669 61.555 490.12 60.88 490.12 60.132 490.12 59.641 489.925 59.17 489.578 58.823 489.231 58.476 488.761 58.281 488.27 58.281 Z" fill="#39519d" fill-opacity="1" stroke="none"/>
    <path id="Path-17" d="M417.953 63.833 C415.708 63.833 413.684 62.48 412.824 60.406 411.965 58.331 412.44 55.944 414.028 54.356 415.615 52.768 418.003 52.293 420.077 53.153 422.152 54.012 423.504 56.036 423.504 58.281 423.504 59.754 422.92 61.166 421.878 62.207 420.837 63.248 419.425 63.833 417.953 63.833 Z M417.953 56.431 C417.205 56.431 416.53 56.882 416.243 57.573 415.957 58.265 416.115 59.061 416.645 59.59 417.174 60.119 417.97 60.277 418.661 59.991 419.353 59.705 419.804 59.03 419.804 58.281 419.804 57.791 419.609 57.32 419.262 56.973 418.915 56.626 418.444 56.431 417.953 56.431 Z" fill="#39519d" fill-opacity="1" stroke="none"/>
    <path id="Path-18" d="M453.111 136 C452.776 136 452.447 135.909 452.16 135.735 L436.445 126.307 C416.984 114.557 405.065 93.505 405 70.772 L405 49.029 C405 48.538 405.195 48.068 405.542 47.721 405.889 47.374 406.36 47.179 406.85 47.179 411.406 47.172 415.945 46.62 420.37 45.534 421.363 45.292 422.365 45.901 422.607 46.894 422.849 47.888 422.24 48.889 421.246 49.131 417.136 50.137 412.931 50.713 408.701 50.85 L408.701 70.772 C408.76 92.207 419.999 112.058 438.348 123.139 L453.111 131.992 467.876 123.134 C474.635 119.088 480.543 113.766 485.27 107.464 485.884 106.648 487.043 106.483 487.86 107.095 488.677 107.708 488.843 108.867 488.231 109.685 483.219 116.368 476.956 122.012 469.789 126.304 L454.074 135.732 C453.784 135.908 453.451 136.001 453.111 136 Z" fill="#39519d" fill-opacity="1" stroke="none"/>
    <path id="Path-19" d="M490.82 104.25 C490.16 104.248 489.551 103.895 489.221 103.322 488.892 102.75 488.893 102.046 489.223 101.474 494.65 92.152 497.513 81.559 497.522 70.772 L497.522 50.852 C481.149 50.336 465.674 43.246 454.592 31.182 L453.111 29.563 451.631 31.184 C445.251 38.126 437.349 43.496 428.545 46.872 427.925 47.119 427.22 47.013 426.7 46.594 426.181 46.176 425.926 45.51 426.034 44.852 426.143 44.194 426.597 43.645 427.224 43.415 435.489 40.244 442.908 35.202 448.898 28.684 L451.748 25.573 C452.107 25.207 452.599 25 453.112 25 453.626 25 454.118 25.207 454.477 25.573 L457.325 28.674 C468.138 40.449 483.386 47.16 499.372 47.179 499.863 47.179 500.334 47.374 500.681 47.721 501.028 48.068 501.223 48.538 501.223 49.029 L501.223 70.772 C501.215 82.21 498.18 93.446 492.425 103.336 492.088 103.907 491.478 104.253 490.82 104.25 Z" fill="#39519d" fill-opacity="1" stroke="none"/>
    <path id="Path-20" d="M442.231 120.839 C441.895 120.839 441.566 120.748 441.278 120.575 L440.253 119.96 C429.099 113.213 420.559 102.886 416.025 90.664 415.667 89.706 416.154 88.639 417.112 88.282 418.07 87.924 419.137 88.411 419.495 89.369 423.597 100.433 431.21 109.849 441.169 116.178 443.188 111.369 447.895 108.24 453.111 108.24 458.327 108.24 463.035 111.369 465.054 116.178 479.96 106.728 489.304 90.587 490.076 72.955 489.478 73.042 488.874 73.085 488.27 73.085 481.119 73.077 475.325 67.282 475.317 60.132 475.312 58.129 475.777 56.154 476.675 54.364 472.577 52.917 468.626 51.084 464.875 48.889 462.765 53.486 458.17 56.432 453.112 56.432 448.054 56.432 443.46 53.486 441.35 48.889 437.805 50.965 434.08 52.72 430.222 54.131 431.559 58.084 430.909 62.44 428.477 65.831 426.044 69.223 422.127 71.234 417.953 71.235 417.334 71.235 416.715 71.189 416.103 71.098 416.139 74.938 416.59 78.764 417.448 82.507 417.608 83.157 417.404 83.842 416.916 84.3 416.428 84.757 415.731 84.915 415.093 84.714 414.456 84.512 413.976 83.982 413.84 83.327 412.895 79.209 412.413 74.997 412.402 70.772 L412.402 68.736 C412.402 68.136 412.693 67.572 413.184 67.226 413.674 66.879 414.302 66.791 414.869 66.992 418.467 68.26 422.476 67.19 424.962 64.295 427.449 61.401 427.904 57.277 426.108 53.911 425.85 53.429 425.817 52.859 426.019 52.351 426.221 51.844 426.637 51.451 427.155 51.279 432.142 49.621 436.908 47.363 441.35 44.555 441.853 44.237 442.478 44.181 443.03 44.403 443.582 44.626 443.993 45.1 444.135 45.678 445.147 49.813 448.853 52.722 453.11 52.722 457.367 52.722 461.073 49.813 462.084 45.678 462.226 45.1 462.638 44.626 463.19 44.403 463.743 44.181 464.368 44.238 464.871 44.557 469.604 47.546 474.704 49.909 480.045 51.588 480.622 51.77 481.074 52.223 481.254 52.801 481.435 53.378 481.322 54.008 480.951 54.486 479.694 56.099 479.013 58.087 479.018 60.132 479.009 63.138 480.466 65.96 482.922 67.694 485.378 69.428 488.524 69.857 491.355 68.844 491.921 68.644 492.549 68.731 493.039 69.078 493.53 69.425 493.821 69.988 493.821 70.589 493.814 90.778 483.255 109.502 465.977 119.957 L464.945 120.577 C464.428 120.886 463.793 120.925 463.242 120.68 462.692 120.435 462.295 119.937 462.179 119.346 461.303 115.034 457.512 111.935 453.111 111.935 448.711 111.935 444.92 115.034 444.044 119.346 443.868 120.208 443.11 120.827 442.231 120.826 Z" fill="#39519d" fill-opacity="1" stroke="none"/>
    <path id="Path-21" d="M448.485 103.029 C447.995 103.029 447.524 102.834 447.177 102.487 L430.299 85.609 C429.577 84.886 429.577 83.715 430.299 82.992 L438.149 75.141 C438.871 74.418 440.043 74.418 440.765 75.141 L448.485 82.859 465.458 65.889 C466.18 65.166 467.352 65.166 468.074 65.889 L475.924 73.74 C476.646 74.463 476.646 75.634 475.924 76.357 L465.994 86.286 C465.268 86.987 464.114 86.977 463.4 86.263 462.687 85.55 462.677 84.396 463.378 83.67 L471.999 75.048 466.766 69.813 449.794 86.778 C449.071 87.501 447.9 87.501 447.177 86.778 L439.457 79.06 434.224 84.295 448.485 98.562 458.145 88.903 C458.871 88.201 460.025 88.211 460.739 88.925 461.453 89.639 461.463 90.793 460.761 91.519 L449.794 102.487 C449.447 102.834 448.976 103.029 448.485 103.029 Z" fill="#39519d" fill-opacity="1" stroke="none"/>
   </g>
  </g>
 </g>
 <g id="upload">
  <path id="Path-22" d="M349.707 114.205 L375.201 82.337 349.707 50.47 349.707 63.217 300.844 63.217 300.844 101.458 349.707 101.458 Z" fill="#f9e109" fill-opacity="1" stroke="none"/>
  <path id="Path-23" d="M336.96 82.337 L375.201 82.337 349.707 50.47 349.707 63.217 300.844 63.217 300.844 101.458 305.093 101.458 C311.37 89.689 323.622 82.337 336.96 82.337 Z" fill="#fcbc04" fill-opacity="1" stroke="none"/>
  <g id="group-3">
   <path id="Path-24" d="M349.006 116.201 C349.856 116.498 350.801 116.225 351.364 115.522 L376.858 83.655 C377.468 82.883 377.468 81.792 376.858 81.02 L351.364 49.152 C350.801 48.449 349.856 48.176 349.006 48.473 348.156 48.769 347.586 49.57 347.583 50.47 L347.583 61.092 300.844 61.092 C299.67 61.092 298.719 62.043 298.719 63.217 L298.719 75.964 C298.774 101.436 299.67 87.648 300.844 87.648 302.017 87.648 302.968 90.149 302.968 88.976 L302.968 65.341 349.707 65.341 C350.88 65.341 351.832 64.39 351.832 63.217 L351.832 56.525 372.481 82.337 351.832 108.15 351.832 101.458 C351.832 100.284 350.88 99.333 349.707 99.333 L302.968 99.333 302.968 88.711 C302.968 87.537 302.017 86.586 300.844 86.586 299.67 86.586 298.719 87.537 298.719 88.711 L298.719 101.458 C298.719 102.631 299.67 103.582 300.844 103.582 L347.583 103.582 347.583 114.205 C347.586 115.105 348.156 115.905 349.006 116.201 Z" fill="#39519d" fill-opacity="1" stroke="none"/>
  </g>
 </g>
 <g id="upload-copy-2">
  <path id="Path-25" d="M581.707 112.205 L607.201 80.337 581.707 48.47 581.707 61.217 532.844 61.217 532.844 99.458 581.707 99.458 Z" fill="#f9e109" fill-opacity="1" stroke="none"/>
  <path id="Path-26" d="M568.96 80.337 L607.201 80.337 581.707 48.47 581.707 61.217 532.844 61.217 532.844 99.458 537.093 99.458 C543.37 87.689 555.622 80.337 568.96 80.337 Z" fill="#fcbc04" fill-opacity="1" stroke="none"/>
  <g id="group-4">
   <path id="Path-27" d="M581.006 114.201 C581.856 114.498 582.801 114.225 583.364 113.522 L608.858 81.655 C609.468 80.883 609.468 79.792 608.858 79.02 L583.364 47.152 C582.801 46.449 581.856 46.176 581.006 46.473 580.156 46.769 579.586 47.57 579.583 48.47 L579.583 59.092 532.844 59.092 C531.67 59.092 530.719 60.043 530.719 61.217 L530.719 73.964 C530.774 99.436 531.67 85.648 532.844 85.648 534.017 85.648 534.968 88.149 534.968 86.976 L534.968 63.341 581.707 63.341 C582.88 63.341 583.832 62.39 583.832 61.217 L583.832 54.525 604.481 80.337 583.832 106.15 583.832 99.458 C583.832 98.284 582.88 97.333 581.707 97.333 L534.968 97.333 534.968 86.711 C534.968 85.537 534.017 84.586 532.844 84.586 531.67 84.586 530.719 85.537 530.719 86.711 L530.719 99.458 C530.719 100.631 531.67 101.582 532.844 101.582 L579.583 101.582 579.583 112.205 C579.586 113.105 580.156 113.905 581.006 114.201 Z" fill="#39519d" fill-opacity="1" stroke="none"/>
  </g>
 </g>
 <g id="upload-copy">
  <path id="Path-28" d="M824.707 117.205 L850.201 85.337 824.707 53.47 824.707 66.217 775.844 66.217 775.844 104.458 824.707 104.458 Z" fill="#f9e109" fill-opacity="1" stroke="none"/>
  <path id="Path-29" d="M811.96 85.337 L850.201 85.337 824.707 53.47 824.707 66.217 775.844 66.217 775.844 104.458 780.093 104.458 C786.37 92.689 798.622 85.337 811.96 85.337 Z" fill="#fcbc04" fill-opacity="1" stroke="none"/>
  <g id="group-5">
   <path id="Path-30" d="M824.006 119.201 C824.856 119.498 825.801 119.225 826.364 118.522 L851.858 86.655 C852.468 85.883 852.468 84.792 851.858 84.02 L826.364 52.152 C825.801 51.449 824.856 51.176 824.006 51.473 823.156 51.769 822.586 52.57 822.583 53.47 L822.583 64.092 775.844 64.092 C774.67 64.092 773.719 65.043 773.719 66.217 L773.719 78.964 C773.774 104.436 774.67 90.648 775.844 90.648 777.017 90.648 777.968 93.149 777.968 91.976 L777.968 68.341 824.707 68.341 C825.88 68.341 826.832 67.39 826.832 66.217 L826.832 59.525 847.481 85.337 826.832 111.15 826.832 104.458 C826.832 103.284 825.88 102.333 824.707 102.333 L777.968 102.333 777.968 91.711 C777.968 90.537 777.017 89.586 775.844 89.586 774.67 89.586 773.719 90.537 773.719 91.711 L773.719 104.458 C773.719 105.631 774.67 106.582 775.844 106.582 L822.583 106.582 822.583 117.205 C822.586 118.105 823.156 118.905 824.006 119.201 Z" fill="#39519d" fill-opacity="1" stroke="none"/>
  </g>
 </g>
 <g id="chat">
  <path id="Path-31" d="M169.9 27 L229.9 27 C234.318 27 237.9 30.582 237.9 35 L237.9 135 C237.9 139.418 234.318 143 229.9 143 L169.9 143 C165.482 143 161.9 139.418 161.9 135 L161.9 35 C161.9 30.582 165.482 27 169.9 27 Z" fill="#4891d3" fill-opacity="1" stroke="none"/>
  <path id="Path-32" d="M177.9 27 L229.9 27 C234.318 27 237.9 30.582 237.9 35 L237.9 123 209.9 123 C192.227 123 177.9 108.673 177.9 91 Z" fill="#57b7eb" fill-opacity="1" stroke="none"/>
  <path id="Path-33" d="M181.9 61 L221.9 61 C226.318 61 229.9 64.582 229.9 69 L229.9 85 C229.9 89.418 226.318 93 221.9 93 L197.9 93 181.9 109 181.9 93 C177.482 93 173.9 89.418 173.9 85 L173.9 69 C173.9 64.582 177.482 61 181.9 61 Z" fill="#f9e109" fill-opacity="1" stroke="none"/>
  <path id="Path-34" d="M209.9 73 C205.482 73 201.9 76.582 201.9 81 L195.9 81 C188.168 81 181.9 74.732 181.9 67 L181.9 61 C177.482 61 173.9 64.582 173.9 69 L173.9 85 C173.9 89.418 177.482 93 181.9 93 L181.9 109 197.9 93 221.9 93 C226.318 93 229.9 89.418 229.9 85 L229.9 73 Z" fill="#fcbc04" fill-opacity="1" stroke="none"/>
  <path id="Path-35" d="M253.9 73 L213.9 73 C209.482 73 205.9 76.582 205.9 81 L205.9 97 C205.9 101.418 209.482 105 213.9 105 L237.9 105 253.9 121 253.9 105 C258.318 105 261.9 101.418 261.9 97 L261.9 81 C261.9 76.582 258.318 73 253.9 73 Z" fill="#a1d51c" fill-opacity="1" stroke="none"/>
  <path id="Path-36" d="M217.9 73 L253.9 73 C258.318 73 261.9 76.582 261.9 81 L261.9 95 233.9 95 C225.063 95 217.9 87.837 217.9 79 Z" fill="#c4f236" fill-opacity="1" stroke="none"/>
  <g id="group-6">
   <path id="Path-37" d="M253.9 71 L213.9 71 C208.378 71 203.9 75.478 203.9 81 L203.9 97 C203.9 102.522 208.378 107 213.9 107 L221.9 107 C223.004 107 223.9 106.104 223.9 105 223.9 103.896 223.004 103 221.9 103 L213.9 103 C210.587 103 207.9 100.313 207.9 97 L207.9 81 C207.9 77.687 210.587 75 213.9 75 L253.9 75 C257.213 75 259.9 77.687 259.9 81 L259.9 97 C259.9 100.313 257.213 103 253.9 103 252.796 103 251.9 103.896 251.9 105 L251.9 116.18 239.32 103.58 C238.943 103.206 238.431 102.997 237.9 103 L229.9 103 C228.796 103 227.9 103.896 227.9 105 227.9 106.104 228.796 107 229.9 107 L237.08 107 252.48 122.42 C252.857 122.794 253.369 123.003 253.9 123 254.163 123.007 254.422 122.952 254.66 122.84 255.407 122.533 255.896 121.808 255.9 121 L255.9 106.8 C260.556 105.85 263.901 101.753 263.9 97 L263.9 81 C263.9 75.478 259.422 71 253.9 71 Z" fill="#39519d" fill-opacity="1" stroke="none"/>
   <path id="Path-38" d="M229.9 85 C231.004 85 231.9 84.104 231.9 83 231.9 81.896 231.004 81 229.9 81 L221.9 81 C220.796 81 219.9 81.896 219.9 83 219.9 84.104 220.796 85 221.9 85 Z" fill="#39519d" fill-opacity="1" stroke="none"/>
   <path id="Path-39" d="M251.9 81 L237.9 81 C236.796 81 235.9 81.896 235.9 83 235.9 84.104 236.796 85 237.9 85 L251.9 85 C253.004 85 253.9 84.104 253.9 83 253.9 81.896 253.004 81 251.9 81 Z" fill="#39519d" fill-opacity="1" stroke="none"/>
   <path id="Path-40" d="M213.9 93 C213.9 94.104 214.796 95 215.9 95 L227.9 95 C229.004 95 229.9 94.104 229.9 93 229.9 91.896 229.004 91 227.9 91 L215.9 91 C214.796 91 213.9 91.896 213.9 93 Z" fill="#39519d" fill-opacity="1" stroke="none"/>
   <path id="Path-41" d="M237.9 93 C237.9 94.104 237.004 95 235.9 95 234.796 95 233.9 94.104 233.9 93 233.9 91.896 234.796 91 235.9 91 237.004 91 237.9 91.896 237.9 93 Z" fill="#39519d" fill-opacity="1" stroke="none"/>
   <path id="Path-42" d="M245.9 93 C245.9 94.104 245.004 95 243.9 95 242.796 95 241.9 94.104 241.9 93 241.9 91.896 242.796 91 243.9 91 245.004 91 245.9 91.896 245.9 93 Z" fill="#39519d" fill-opacity="1" stroke="none"/>
   <path id="Path-43" d="M253.9 93 C253.9 94.104 253.004 95 251.9 95 250.796 95 249.9 94.104 249.9 93 249.9 91.896 250.796 91 251.9 91 253.004 91 253.9 91.896 253.9 93 Z" fill="#39519d" fill-opacity="1" stroke="none"/>
   <path id="Path-44" d="M201.9 69 L191.9 69 C190.796 69 189.9 69.896 189.9 71 189.9 72.104 190.796 73 191.9 73 L201.9 73 C203.004 73 203.9 72.104 203.9 71 203.9 69.896 203.004 69 201.9 69 Z" fill="#39519d" fill-opacity="1" stroke="none"/>
   <path id="Path-45" d="M185.9 79 C184.796 79 183.9 79.896 183.9 81 183.9 82.104 184.796 83 185.9 83 L189.9 83 C191.004 83 191.9 82.104 191.9 81 191.9 79.896 191.004 79 189.9 79 Z" fill="#39519d" fill-opacity="1" stroke="none"/>
   <path id="Path-46" d="M199.9 81 C199.9 82.104 199.004 83 197.9 83 196.796 83 195.9 82.104 195.9 81 195.9 79.896 196.796 79 197.9 79 199.004 79 199.9 79.896 199.9 81 Z" fill="#39519d" fill-opacity="1" stroke="none"/>
   <path id="Path-47" d="M227.06 66 C227.328 66.46 227.766 66.794 228.281 66.929 228.795 67.063 229.341 66.988 229.8 66.72 230.745 66.164 231.066 64.951 230.52 64 228.741 60.918 225.459 59.015 221.9 59 L181.9 59 C176.378 59 171.9 63.478 171.9 69 L171.9 85 C171.899 89.753 175.244 93.85 179.9 94.8 L179.9 109 C179.904 109.808 180.393 110.533 181.14 110.84 181.378 110.952 181.637 111.007 181.9 111 182.431 111.003 182.943 110.794 183.32 110.42 L199.32 94.42 C200.104 93.636 200.104 92.364 199.32 91.58 198.536 90.796 197.264 90.796 196.48 91.58 L183.9 104.18 183.9 93 C183.9 91.896 183.004 91 181.9 91 178.587 91 175.9 88.313 175.9 85 L175.9 69 C175.9 65.687 178.587 63 181.9 63 L221.9 63 C224.031 63.013 225.995 64.154 227.06 66 Z" fill="#39519d" fill-opacity="1" stroke="none"/>
   <path id="Path-48" d="M189.9 133 C188.796 133 187.9 133.896 187.9 135 187.9 136.104 188.796 137 189.9 137 L209.9 137 C211.004 137 211.9 136.104 211.9 135 211.9 133.896 211.004 133 209.9 133 Z" fill="#39519d" fill-opacity="1" stroke="none"/>
   <path id="Path-49" d="M173.9 35 C173.9 36.104 173.004 37 171.9 37 170.796 37 169.9 36.104 169.9 35 169.9 33.896 170.796 33 171.9 33 173.004 33 173.9 33.896 173.9 35 Z" fill="#39519d" fill-opacity="1" stroke="none"/>
   <path id="Path-50" d="M181.9 35 C181.9 36.104 181.004 37 179.9 37 178.796 37 177.9 36.104 177.9 35 177.9 33.896 178.796 33 179.9 33 181.004 33 181.9 33.896 181.9 35 Z" fill="#39519d" fill-opacity="1" stroke="none"/>
   <path id="Path-51" d="M227.9 37 C229.004 37 229.9 36.104 229.9 35 229.9 33.896 229.004 33 227.9 33 L213.9 33 C212.796 33 211.9 33.896 211.9 35 211.9 36.104 212.796 37 213.9 37 Z" fill="#39519d" fill-opacity="1" stroke="none"/>
   <path id="Path-52" d="M175.9 125 C174.796 125 173.9 125.896 173.9 127 173.9 128.104 174.796 129 175.9 129 L223.9 129 C225.004 129 225.9 128.104 225.9 127 225.9 125.896 225.004 125 223.9 125 Z" fill="#39519d" fill-opacity="1" stroke="none"/>
   <path id="Path-53" d="M173.9 43 C173.9 44.104 174.796 45 175.9 45 L223.9 45 C225.004 45 225.9 44.104 225.9 43 225.9 41.896 225.004 41 223.9 41 L175.9 41 C174.796 41 173.9 41.896 173.9 43 Z" fill="#39519d" fill-opacity="1" stroke="none"/>
   <path id="Path-54" d="M237.9 115 C236.796 115 235.9 115.896 235.9 117 L235.9 135 C235.9 138.313 233.213 141 229.9 141 L169.9 141 C166.587 141 163.9 138.313 163.9 135 L163.9 35 C163.9 31.687 166.587 29 169.9 29 L229.9 29 C233.213 29 235.9 31.687 235.9 35 L235.9 65 C235.9 66.104 236.796 67 237.9 67 239.004 67 239.9 66.104 239.9 65 L239.9 35 C239.9 29.478 235.422 25 229.9 25 L169.9 25 C164.378 25 159.9 29.478 159.9 35 L159.9 135 C159.9 140.522 164.378 145 169.9 145 L229.9 145 C235.422 145 239.9 140.522 239.9 135 L239.9 117 C239.9 115.896 239.004 115 237.9 115 Z" fill="#39519d" fill-opacity="1" stroke="none"/>
  </g>
 </g>
 <g id="worldwide">
  <g id="Color-1">
   <g id="group-7">
    <path id="Path-55" d="M1235.427 88.256 C1235.427 115.781 1213.114 138.094 1185.589 138.094 1158.064 138.094 1135.751 115.781 1135.751 88.256 1135.751 60.731 1158.064 38.418 1185.589 38.418 1213.114 38.418 1235.427 60.731 1235.427 88.256 Z" fill="#57b7eb" fill-opacity="1" stroke="none"/>
    <path id="Path-56" d="M1208.591 117.009 C1190.904 117.007 1174.543 107.632 1165.599 92.374 1156.655 77.115 1156.468 58.259 1165.107 42.826 1145.371 51.718 1133.631 72.333 1136.054 93.844 1138.477 115.355 1154.508 132.842 1175.728 137.121 1196.948 141.4 1218.503 131.491 1229.073 112.6 1222.637 115.51 1215.654 117.013 1208.591 117.009 Z" fill="#4891d3" fill-opacity="1" stroke="none"/>
    <g id="group-8">
     <path id="Path-57" d="M1222.009 26.916 C1218.959 26.916 1216.033 28.128 1213.877 30.285 1211.72 32.442 1210.508 35.367 1210.508 38.418 1210.508 49.919 1222.009 57.586 1222.009 57.586 1222.009 57.586 1233.51 49.919 1233.51 38.418 1233.51 35.367 1232.298 32.442 1230.142 30.285 1227.985 28.128 1225.059 26.916 1222.009 26.916 Z M1222.009 42.251 C1220.458 42.251 1219.061 41.317 1218.467 39.885 1217.874 38.452 1218.202 36.803 1219.298 35.707 1220.395 34.61 1222.044 34.282 1223.476 34.876 1224.909 35.469 1225.843 36.867 1225.843 38.418 1225.843 39.434 1225.439 40.409 1224.72 41.128 1224.001 41.847 1223.026 42.251 1222.009 42.251 Z" fill="#f89c8d" fill-opacity="1" stroke="none"/>
     <path id="Path-58" d="M1143.418 38.418 C1140.368 38.418 1137.442 39.629 1135.285 41.786 1133.129 43.943 1131.917 46.868 1131.917 49.919 1131.917 61.42 1143.418 69.087 1143.418 69.087 1143.418 69.087 1154.919 61.42 1154.919 49.919 1154.919 46.868 1153.707 43.943 1151.551 41.786 1149.394 39.629 1146.468 38.418 1143.418 38.418 Z M1143.418 53.752 C1141.867 53.752 1140.469 52.818 1139.876 51.386 1139.283 49.953 1139.611 48.304 1140.707 47.208 1141.804 46.111 1143.453 45.783 1144.885 46.377 1146.318 46.97 1147.252 48.368 1147.252 49.919 1147.252 50.936 1146.848 51.911 1146.129 52.63 1145.41 53.349 1144.435 53.752 1143.418 53.752 Z" fill="#f89c8d" fill-opacity="1" stroke="none"/>
     <path id="Path-59" d="M1160.67 86.339 C1157.619 86.339 1154.694 87.551 1152.537 89.708 1150.38 91.864 1149.169 94.79 1149.169 97.84 1149.169 109.341 1160.67 117.009 1160.67 117.009 1160.67 117.009 1172.171 109.341 1172.171 97.84 1172.171 94.79 1170.959 91.864 1168.802 89.708 1166.645 87.551 1163.72 86.339 1160.67 86.339 Z M1160.67 101.674 C1159.119 101.674 1157.721 100.74 1157.128 99.307 1156.534 97.875 1156.862 96.226 1157.959 95.129 1159.055 94.033 1160.704 93.705 1162.137 94.298 1163.569 94.892 1164.503 96.29 1164.503 97.84 1164.503 98.857 1164.099 99.832 1163.38 100.551 1162.662 101.27 1161.686 101.674 1160.67 101.674 Z" fill="#f89c8d" fill-opacity="1" stroke="none"/>
    </g>
    <path id="Path-60" d="M1216.259 34.584 C1216.256 31.962 1217.154 29.418 1218.802 27.378 1213.89 28.805 1210.51 33.303 1210.508 38.418 1210.508 49.919 1222.009 57.586 1222.009 57.586 1223.816 56.296 1225.482 54.818 1226.978 53.177 1224.415 51.236 1216.259 44.283 1216.259 34.584 Z" fill="#f8664f" fill-opacity="1" stroke="none"/>
    <path id="Path-61" d="M1137.667 46.085 C1137.665 43.463 1138.563 40.919 1140.211 38.88 1135.299 40.306 1131.919 44.804 1131.917 49.919 1131.917 61.42 1143.418 69.087 1143.418 69.087 1145.225 67.797 1146.89 66.319 1148.386 64.679 1145.824 62.737 1137.667 55.784 1137.667 46.085 Z" fill="#f8664f" fill-opacity="1" stroke="none"/>
    <path id="Path-62" d="M1154.919 94.006 C1154.916 91.384 1155.814 88.84 1157.463 86.801 1152.551 88.227 1149.171 92.725 1149.169 97.84 1149.169 109.341 1160.67 117.009 1160.67 117.009 1162.477 115.718 1164.142 114.241 1165.638 112.6 1163.075 110.658 1154.919 103.706 1154.919 94.006 Z" fill="#f8664f" fill-opacity="1" stroke="none"/>
   </g>
  </g>
  <g id="Outline_copy-1">
   <g id="group-9">
    <path id="Path-63" d="M1229.882 61.483 C1229.32 60.608 1228.164 60.34 1227.275 60.878 1226.386 61.417 1226.088 62.566 1226.604 63.469 1230.782 70.391 1233.136 78.26 1233.445 86.339 L1218.595 86.339 C1221.975 80.378 1223.799 73.662 1223.897 66.81 1223.91 65.754 1223.065 64.886 1222.009 64.87 1220.965 64.89 1220.115 65.717 1220.065 66.76 1219.992 71.021 1219.182 75.236 1217.669 79.22 1216.991 72.832 1215.457 66.565 1213.109 60.586 1215.203 59.809 1217.251 58.913 1219.243 57.902 1220.177 58.66 1220.832 59.112 1220.941 59.185 1221.586 59.615 1222.425 59.615 1223.069 59.185 1223.577 58.846 1235.427 50.802 1235.427 38.418 1235.427 37.733 1235.062 37.1 1234.469 36.758 1233.875 36.415 1233.145 36.415 1232.552 36.758 1231.959 37.1 1231.593 37.733 1231.593 38.418 1231.593 46.752 1224.708 53.047 1222.009 55.194 1219.31 53.047 1212.425 46.76 1212.425 38.418 1212.425 34.323 1215.024 30.682 1218.895 29.352 1222.766 28.022 1227.055 29.297 1229.57 32.526 1230.236 33.299 1231.392 33.415 1232.198 32.788 1233.005 32.161 1233.178 31.012 1232.592 30.175 1229.07 25.657 1223.069 23.873 1217.651 25.733 1212.233 27.594 1208.594 32.689 1208.591 38.418 1208.875 44.76 1211.608 50.746 1216.216 55.113 1214.723 55.817 1213.188 56.482 1211.576 57.072 1209.165 51.79 1205.732 47.038 1201.474 43.091 1202.049 43.283 1202.624 43.455 1203.199 43.679 1203.424 43.768 1203.663 43.813 1203.904 43.814 1204.825 43.814 1205.616 43.16 1205.788 42.256 1205.961 41.351 1205.466 40.452 1204.61 40.114 1190.356 34.49 1174.344 35.469 1160.88 42.786 1159.951 43.293 1159.609 44.458 1160.116 45.387 1160.623 46.317 1161.788 46.659 1162.717 46.152 1164.929 44.955 1167.233 43.936 1169.606 43.104 1161.172 50.595 1155.026 63.887 1153.418 80.048 1153.35 80.73 1153.65 81.396 1154.206 81.796 1154.762 82.196 1155.49 82.27 1156.115 81.988 1156.739 81.706 1157.166 81.113 1157.235 80.431 1157.835 74.042 1159.339 67.77 1161.703 61.803 1164.761 62.735 1167.876 63.471 1171.028 64.008 1168.108 68.903 1166.244 74.355 1165.556 80.013 1165.43 81.064 1166.179 82.018 1167.229 82.145 1167.306 82.154 1167.384 82.159 1167.461 82.158 1168.429 82.157 1169.245 81.433 1169.361 80.472 1170.057 74.815 1172.047 69.395 1175.175 64.631 1177.965 64.966 1180.808 65.158 1183.672 65.221 L1183.672 86.339 1177.043 86.339 C1176.359 86.339 1175.726 86.704 1175.383 87.297 1175.041 87.891 1175.041 88.621 1175.383 89.214 1175.726 89.807 1176.359 90.173 1177.043 90.173 L1183.672 90.173 1183.672 103.543 C1183.35 103.543 1183.037 103.591 1182.714 103.591 1181.433 103.592 1180.154 103.528 1178.88 103.399 1178.187 103.307 1177.499 103.6 1177.085 104.164 1176.67 104.727 1176.596 105.471 1176.889 106.105 1177.183 106.739 1177.799 107.163 1178.496 107.212 1179.898 107.354 1181.305 107.425 1182.714 107.424 1183.037 107.424 1183.35 107.384 1183.672 107.376 L1183.672 111.314 C1178.318 111.414 1172.985 112.026 1167.747 113.139 1171.638 108.972 1173.89 103.538 1174.088 97.84 1174.088 93.046 1171.53 88.617 1167.379 86.22 1163.227 83.823 1158.112 83.823 1153.961 86.22 1149.809 88.617 1147.252 93.046 1147.252 97.84 1147.252 106.602 1153.173 113.175 1156.821 116.399 1154.34 117.381 1151.932 118.54 1149.617 119.867 1142.351 111.633 1138.147 101.145 1137.715 90.173 L1144.185 90.173 C1144.87 90.173 1145.502 89.807 1145.845 89.214 1146.187 88.621 1146.187 87.891 1145.845 87.297 1145.502 86.704 1144.87 86.339 1144.185 86.339 L1137.734 86.339 C1137.876 82.475 1138.484 78.643 1139.548 74.926 1139.827 73.915 1139.241 72.867 1138.233 72.575 1137.225 72.283 1136.17 72.856 1135.866 73.86 1129.285 96.607 1138.981 120.918 1159.409 132.893 1179.837 144.868 1205.786 141.451 1222.419 124.598 1239.052 107.744 1242.125 81.751 1229.882 61.483 Z M1213.101 115.939 C1216.296 107.717 1218.004 98.993 1218.145 90.173 L1233.462 90.173 C1233.031 101.145 1228.827 111.633 1221.561 119.867 1218.853 118.329 1216.024 117.015 1213.101 115.939 Z M1207.987 58.257 C1201.329 60.202 1194.441 61.248 1187.506 61.368 L1187.506 52.794 C1189.631 51.529 1191.879 50.481 1194.215 49.668 1195.208 49.316 1195.732 48.229 1195.387 47.234 1195.042 46.238 1193.959 45.707 1192.961 46.045 1191.087 46.693 1189.264 47.479 1187.506 48.395 L1187.506 40.453 C1195.769 41.366 1203.088 48.117 1207.987 58.257 Z M1163.267 58.282 C1168.224 48.123 1175.581 41.414 1183.672 40.482 L1183.672 50.685 C1179.7 53.345 1176.216 56.669 1173.373 60.511 1169.956 60.008 1166.579 59.263 1163.267 58.282 Z M1177.816 61.046 C1179.559 58.96 1181.523 57.069 1183.672 55.405 L1183.672 61.383 C1181.704 61.339 1179.752 61.226 1177.816 61.046 Z M1187.506 65.202 C1194.976 65.077 1202.393 63.926 1209.549 61.78 1212.536 69.512 1214.149 77.706 1214.317 85.992 1214.244 86.107 1214.175 86.224 1214.1 86.339 L1187.506 86.339 Z M1187.506 90.173 L1211.307 90.173 C1205.289 97.355 1196.796 102.019 1187.506 103.242 Z M1214.215 92.665 C1213.857 100.219 1212.281 107.666 1209.55 114.718 1202.394 112.573 1194.975 111.427 1187.506 111.314 L1187.506 107.116 C1197.922 105.869 1207.473 100.702 1214.215 92.665 Z M1187.506 136.058 L1187.506 115.149 C1194.437 115.281 1201.32 116.335 1207.974 118.283 1203.074 128.408 1195.762 135.148 1187.506 136.058 Z M1183.672 136.058 C1175.74 135.156 1168.305 128.694 1163.24 118.274 1169.882 116.332 1176.753 115.281 1183.672 115.149 Z M1151.085 97.84 C1151.087 92.549 1155.377 88.26 1160.669 88.26 1165.961 88.26 1170.252 92.548 1170.254 97.84 1170.254 106.175 1163.369 112.47 1160.67 114.616 1157.971 112.47 1151.085 106.175 1151.085 97.84 Z M1152.354 122.732 C1154.682 121.479 1157.099 120.399 1159.585 119.501 1161.987 124.79 1165.43 129.541 1169.708 133.471 1163.22 131.177 1157.302 127.515 1152.354 122.732 Z M1211.557 119.474 C1214.056 120.379 1216.485 121.469 1218.823 122.732 1213.858 127.526 1207.917 131.192 1201.407 133.482 1205.686 129.534 1209.136 124.773 1211.556 119.478 Z" fill="#434951" fill-opacity="1" stroke="none"/>
    <path id="Path-64" d="M1216.259 38.418 C1216.259 40.743 1217.66 42.84 1219.808 43.73 1221.957 44.621 1224.431 44.129 1226.075 42.484 1227.72 40.839 1228.212 38.366 1227.322 36.217 1226.432 34.068 1224.335 32.667 1222.009 32.667 1220.484 32.667 1219.021 33.273 1217.943 34.351 1216.864 35.43 1216.259 36.892 1216.259 38.418 Z M1223.926 38.418 C1223.926 39.193 1223.459 39.892 1222.743 40.189 1222.026 40.485 1221.202 40.321 1220.654 39.773 1220.105 39.225 1219.941 38.4 1220.238 37.684 1220.535 36.968 1221.234 36.501 1222.009 36.501 1222.517 36.501 1223.005 36.703 1223.365 37.062 1223.724 37.422 1223.926 37.909 1223.926 38.418 Z" fill="#434951" fill-opacity="1" stroke="none"/>
    <path id="Path-65" d="M1149.169 49.919 C1149.169 47.593 1147.767 45.496 1145.619 44.606 1143.47 43.716 1140.996 44.208 1139.352 45.852 1137.707 47.497 1137.215 49.971 1138.105 52.119 1138.995 54.268 1141.092 55.669 1143.418 55.669 1144.943 55.669 1146.406 55.063 1147.484 53.985 1148.563 52.907 1149.169 51.444 1149.169 49.919 Z M1141.501 49.919 C1141.501 49.143 1141.968 48.444 1142.684 48.148 1143.401 47.851 1144.225 48.015 1144.773 48.563 1145.322 49.112 1145.486 49.936 1145.189 50.652 1144.892 51.369 1144.193 51.836 1143.418 51.836 1142.91 51.836 1142.422 51.634 1142.063 51.274 1141.703 50.915 1141.501 50.427 1141.501 49.919 Z" fill="#434951" fill-opacity="1" stroke="none"/>
    <path id="Path-66" d="M1142.354 70.682 C1142.998 71.112 1143.838 71.112 1144.482 70.682 1144.986 70.347 1156.836 62.304 1156.836 49.919 1156.836 45.125 1154.279 40.695 1150.127 38.298 1145.975 35.902 1140.861 35.902 1136.709 38.298 1132.557 40.695 1130 45.125 1130 49.919 1130 62.304 1141.85 70.347 1142.354 70.682 Z M1143.418 40.334 C1148.709 40.341 1152.996 44.628 1153.002 49.919 1153.002 58.253 1146.117 64.548 1143.418 66.695 1140.719 64.548 1133.834 58.261 1133.834 49.919 1133.84 44.628 1138.127 40.341 1143.418 40.334 Z" fill="#434951" fill-opacity="1" stroke="none"/>
    <path id="Path-67" d="M1157.062 38.418 C1157.523 38.417 1157.968 38.251 1158.316 37.95 1170.721 27.171 1188.731 25.813 1202.612 34.611 1203.506 35.147 1204.664 34.871 1205.22 33.99 1205.776 33.109 1205.526 31.945 1204.658 31.369 1189.349 21.67 1169.49 23.167 1155.807 35.05 1155.2 35.573 1154.983 36.419 1155.263 37.17 1155.543 37.921 1156.261 38.419 1157.062 38.418 Z" fill="#434951" fill-opacity="1" stroke="none"/>
    <path id="Path-68" d="M1146.59 75.664 C1146.308 74.661 1145.275 74.067 1144.266 74.328 1143.257 74.588 1142.641 75.608 1142.879 76.622 1143.442 78.779 1144.177 80.887 1145.08 82.925 1145.387 83.619 1146.075 84.066 1146.834 84.066 1147.479 84.063 1148.08 83.736 1148.433 83.196 1148.785 82.655 1148.842 81.974 1148.584 81.382 1147.766 79.533 1147.099 77.621 1146.59 75.664 Z" fill="#434951" fill-opacity="1" stroke="none"/>
    <path id="Path-69" d="M1166.42 97.84 C1166.42 95.514 1165.019 93.417 1162.87 92.527 1160.722 91.637 1158.248 92.129 1156.603 93.774 1154.959 95.419 1154.467 97.892 1155.357 100.041 1156.247 102.19 1158.344 103.591 1160.67 103.591 1162.195 103.591 1163.657 102.985 1164.736 101.906 1165.814 100.828 1166.42 99.365 1166.42 97.84 Z M1158.753 97.84 C1158.753 97.065 1159.22 96.366 1159.936 96.069 1160.652 95.772 1161.477 95.936 1162.025 96.485 1162.573 97.033 1162.737 97.857 1162.441 98.574 1162.144 99.29 1161.445 99.757 1160.67 99.757 1160.161 99.757 1159.674 99.555 1159.314 99.196 1158.955 98.836 1158.753 98.349 1158.753 97.84 Z" fill="#434951" fill-opacity="1" stroke="none"/>
   </g>
  </g>
 </g>
 <g id="vpn-2">
  <g id="Color-2">
   <g id="group-10">
    <path id="Path-70" d="M990.018 84.995 L990.018 112.736 C990.018 116.019 987.357 118.68 984.074 118.68 L892.926 118.68 C889.643 118.68 886.982 116.019 886.982 112.736 L886.982 57.254 C886.982 53.971 889.643 51.31 892.926 51.31 L984.074 51.31 C987.357 51.31 990.018 53.971 990.018 57.254 Z" fill="#57b7eb" fill-opacity="1" stroke="none"/>
    <path id="Path-71" d="M950.389 51.31 C950.389 54.463 951.641 57.487 953.871 59.717 956.101 61.946 959.125 63.199 962.278 63.199 L972.185 63.199 C973.762 63.199 975.274 63.825 976.389 64.94 977.503 66.055 978.13 67.567 978.13 69.143 L978.13 81.032 C978.13 84.185 979.382 87.209 981.612 89.439 983.841 91.668 986.865 92.921 990.018 92.921 L990.018 57.254 C990.018 55.678 989.392 54.166 988.277 53.051 987.163 51.936 985.651 51.31 984.074 51.31 Z" fill="#84d2f4" fill-opacity="1" stroke="none"/>
    <path id="Path-72" d="M948.407 102.828 C936.32 102.828 924.728 98.027 916.182 89.48 907.635 80.933 902.833 69.341 902.833 57.254 L902.833 51.31 892.926 51.31 C891.349 51.31 889.837 51.936 888.723 53.051 887.608 54.166 886.982 55.678 886.982 57.254 L886.982 112.736 C886.982 114.312 887.608 115.824 888.723 116.939 889.837 118.054 891.349 118.68 892.926 118.68 L984.074 118.68 C985.651 118.68 987.163 118.054 988.277 116.939 989.392 115.824 990.018 114.312 990.018 112.736 L990.018 102.828 Z" fill="#4891d3" fill-opacity="1" stroke="none"/>
    <path id="Path-73" d="M901.843 130.569 L975.157 130.569 C976.208 130.569 977.216 130.987 977.96 131.73 978.703 132.473 979.12 133.481 979.12 134.532 L979.12 138.495 979.12 138.495 897.88 138.495 897.88 138.495 897.88 134.532 C897.88 133.481 898.297 132.473 899.04 131.73 899.784 130.987 900.792 130.569 901.843 130.569 Z" fill="#e9f1f2" fill-opacity="1" stroke="none"/>
    <path id="Path-74" d="M962.278 130.569 L914.722 130.569 920.667 118.68 956.333 118.68 Z" fill="#d0d8da" fill-opacity="1" stroke="none"/>
    <g id="group-11">
     <path id="Path-75" d="M952.943 76.106 L938.5 84.995 924.057 76.106 C917.025 71.779 912.741 64.113 912.741 55.855 L912.741 33.477 C921.703 33.476 930.382 30.334 937.268 24.598 L938.5 23.569 939.732 24.598 C946.618 30.334 955.297 33.476 964.259 33.477 L964.259 55.855 C964.259 64.113 959.975 71.779 952.943 76.106 Z" fill="#f9e109" fill-opacity="1" stroke="none"/>
     <path id="Path-76" d="M954.352 75.088 L939.909 66.199 C932.876 61.871 928.593 54.205 928.593 45.948 L928.593 30.031 C923.615 32.299 918.21 33.474 912.741 33.477 L912.741 55.855 C912.741 64.113 917.025 71.779 924.057 76.106 L938.5 84.995 952.943 76.106 C953.52 75.752 954.049 75.341 954.588 74.943 Z" fill="#fcbc04" fill-opacity="1" stroke="none"/>
     <path id="Path-77" d="M948.407 57.254 L948.407 63.199 C948.407 65.388 946.633 67.162 944.444 67.162 L932.556 67.162 C930.367 67.162 928.593 65.388 928.593 63.199 L928.593 51.31 C928.593 49.121 930.367 47.347 932.556 47.347 L944.444 47.347 C946.633 47.347 948.407 49.121 948.407 51.31 Z" fill="#e9f1f2" fill-opacity="1" stroke="none"/>
     <path id="Path-78" d="M932.556 51.31 L932.556 47.347 C931.505 47.347 930.497 47.765 929.753 48.508 929.01 49.251 928.593 50.259 928.593 51.31 L928.593 63.199 C928.593 64.25 929.01 65.258 929.753 66.001 930.497 66.744 931.505 67.162 932.556 67.162 L944.444 67.162 C945.495 67.162 946.503 66.744 947.247 66.001 947.99 65.258 948.407 64.25 948.407 63.199 L944.444 63.199 C941.291 63.199 938.267 61.946 936.038 59.717 933.808 57.487 932.556 54.463 932.556 51.31 Z" fill="#d0d8da" fill-opacity="1" stroke="none"/>
     <path id="Path-79" d="M941.492 67.162 L932.556 67.162 C930.37 67.155 928.599 65.385 928.593 63.199 L928.593 51.31 C928.594 50.779 928.702 50.253 928.91 49.764 930.005 56.581 934.021 62.581 939.907 66.191 Z" fill="#93999a" fill-opacity="1" stroke="none"/>
    </g>
    <g id="group-12">
     <path id="Path-80" d="M988.037 29.514 C988.037 32.797 985.376 35.458 982.093 35.458 978.81 35.458 976.148 32.797 976.148 29.514 976.148 26.231 978.81 23.569 982.093 23.569 985.376 23.569 988.037 26.231 988.037 29.514 Z" fill="#f9e109" fill-opacity="1" stroke="none"/>
     <path id="Path-81" d="M900.852 29.514 C900.852 32.797 898.19 35.458 894.907 35.458 891.624 35.458 888.963 32.797 888.963 29.514 888.963 26.231 891.624 23.569 894.907 23.569 898.19 23.569 900.852 26.231 900.852 29.514 Z" fill="#f9e109" fill-opacity="1" stroke="none"/>
     <path id="Path-82" d="M988.037 75.088 C988.037 78.371 985.376 81.032 982.093 81.032 978.81 81.032 976.148 78.371 976.148 75.088 976.148 71.805 978.81 69.143 982.093 69.143 985.376 69.143 988.037 71.805 988.037 75.088 Z" fill="#f9e109" fill-opacity="1" stroke="none"/>
     <path id="Path-83" d="M900.852 75.088 C900.852 78.371 898.19 81.032 894.907 81.032 891.624 81.032 888.963 78.371 888.963 75.088 888.963 71.805 891.624 69.143 894.907 69.143 898.19 69.143 900.852 71.805 900.852 75.088 Z" fill="#f9e109" fill-opacity="1" stroke="none"/>
     <path id="Path-84" d="M980.111 100.847 C980.111 103.036 978.337 104.81 976.148 104.81 973.959 104.81 972.185 103.036 972.185 100.847 972.185 98.658 973.959 96.884 976.148 96.884 978.337 96.884 980.111 98.658 980.111 100.847 Z" fill="#f9e109" fill-opacity="1" stroke="none"/>
     <path id="Path-85" d="M904.815 100.847 C904.815 103.036 903.041 104.81 900.852 104.81 898.663 104.81 896.889 103.036 896.889 100.847 896.889 98.658 898.663 96.884 900.852 96.884 903.041 96.884 904.815 98.658 904.815 100.847 Z" fill="#f9e109" fill-opacity="1" stroke="none"/>
    </g>
    <path id="Path-86" d="M914.722 130.569 L920.667 118.68 956.333 118.68 Z" fill="#93999a" fill-opacity="1" stroke="none"/>
    <path id="Path-87" d="M904.815 130.569 L901.843 130.569 C900.792 130.569 899.784 130.987 899.04 131.73 898.297 132.473 897.88 133.481 897.88 134.532 L897.88 138.495 979.12 138.495 979.12 134.532 908.778 134.532 C907.727 134.532 906.719 134.115 905.976 133.371 905.232 132.628 904.815 131.62 904.815 130.569 Z" fill="#d0d8da" fill-opacity="1" stroke="none"/>
    <path id="Path-88" d="M978.13 102.828 C976.783 102.834 975.527 102.153 974.797 101.022 974.067 99.891 973.964 98.465 974.523 97.241 972.907 97.959 971.963 99.661 972.209 101.413 972.455 103.164 973.831 104.541 975.582 104.786 977.334 105.032 979.036 104.088 979.754 102.472 979.244 102.705 978.69 102.826 978.13 102.828 Z" fill="#fcbc04" fill-opacity="1" stroke="none"/>
    <path id="Path-89" d="M902.833 102.828 C901.487 102.834 900.231 102.153 899.501 101.022 898.771 99.891 898.667 98.465 899.227 97.241 897.611 97.959 896.667 99.661 896.912 101.413 897.158 103.164 898.535 104.541 900.286 104.786 902.037 105.032 903.74 104.088 904.458 102.472 903.948 102.705 903.394 102.826 902.833 102.828 Z" fill="#fcbc04" fill-opacity="1" stroke="none"/>
    <path id="Path-90" d="M984.074 77.069 C982.497 77.069 980.986 76.443 979.871 75.328 978.756 74.213 978.13 72.701 978.13 71.125 978.13 70.96 978.165 70.808 978.177 70.645 976.165 72.406 975.582 75.296 976.753 77.7 977.924 80.104 980.559 81.426 983.186 80.927 985.813 80.429 987.781 78.233 987.99 75.567 986.912 76.53 985.519 77.064 984.074 77.069 Z" fill="#fcbc04" fill-opacity="1" stroke="none"/>
    <path id="Path-91" d="M984.074 31.495 C982.497 31.495 980.986 30.869 979.871 29.754 978.756 28.639 978.13 27.127 978.13 25.551 978.13 25.386 978.165 25.234 978.177 25.071 976.165 26.832 975.582 29.722 976.753 32.126 977.924 34.53 980.559 35.852 983.186 35.353 985.813 34.854 987.781 32.659 987.99 29.993 986.912 30.956 985.519 31.49 984.074 31.495 Z" fill="#fcbc04" fill-opacity="1" stroke="none"/>
    <path id="Path-92" d="M896.889 31.495 C895.312 31.495 893.8 30.869 892.686 29.754 891.571 28.639 890.944 27.127 890.944 25.551 890.944 25.386 890.98 25.234 890.992 25.071 888.98 26.832 888.397 29.722 889.568 32.126 890.739 34.53 893.374 35.852 896.001 35.353 898.628 34.854 900.596 32.659 900.804 29.993 899.727 30.956 898.334 31.49 896.889 31.495 Z" fill="#fcbc04" fill-opacity="1" stroke="none"/>
    <path id="Path-93" d="M896.889 77.069 C895.312 77.069 893.8 76.443 892.686 75.328 891.571 74.213 890.944 72.701 890.944 71.125 890.944 70.96 890.98 70.808 890.992 70.645 888.98 72.406 888.397 75.296 889.568 77.7 890.739 80.104 893.374 81.426 896.001 80.927 898.628 80.429 900.596 78.233 900.804 75.567 899.727 76.53 898.334 77.064 896.889 77.069 Z" fill="#fcbc04" fill-opacity="1" stroke="none"/>
   </g>
  </g>
  <g id="Outline_copy-2">
   <g id="group-13">
    <path id="Path-94" d="M984.074 49.328 L972.185 49.328 C971.477 49.328 970.823 49.706 970.469 50.319 970.115 50.932 970.115 51.688 970.469 52.301 970.823 52.914 971.477 53.291 972.185 53.291 L984.074 53.291 C985.125 53.291 986.133 53.709 986.876 54.452 987.62 55.195 988.037 56.203 988.037 57.254 L988.037 69.9 C986.567 68.181 984.425 67.183 982.163 67.162 979.901 67.141 977.741 68.1 976.239 69.791 L964.893 63.861 C965.767 61.281 966.222 58.579 966.241 55.855 L966.241 51.31 C966.241 50.602 965.863 49.948 965.25 49.594 964.637 49.24 963.882 49.24 963.268 49.594 962.655 49.948 962.278 50.602 962.278 51.31 L962.278 55.855 C962.25 63.418 958.331 70.433 951.905 74.42 L938.5 82.669 925.095 74.42 C918.669 70.433 914.75 63.418 914.722 55.855 L914.722 35.407 C917.83 35.243 920.908 34.723 923.896 33.857 924.943 33.55 925.544 32.456 925.243 31.408 924.941 30.36 923.85 29.753 922.801 30.049 919.532 30.999 916.145 31.486 912.741 31.495 912.215 31.495 911.711 31.704 911.34 32.075 910.968 32.447 910.759 32.951 910.759 33.477 L910.759 35.563 902.611 31.297 C903.553 27.374 901.428 23.365 897.653 21.941 893.879 20.517 889.635 22.125 887.752 25.693 885.868 29.26 886.934 33.671 890.238 35.985 893.543 38.299 898.053 37.792 900.761 34.802 L910.759 40.035 910.759 49.328 892.926 49.328 C888.549 49.328 885 52.877 885 57.254 L885 65.18 C885 65.888 885.378 66.542 885.991 66.896 886.604 67.25 887.359 67.25 887.972 66.896 888.585 66.542 888.963 65.888 888.963 65.18 L888.963 57.254 C888.963 55.066 890.737 53.291 892.926 53.291 L910.759 53.291 910.759 55.855 C910.778 58.579 911.233 61.281 912.107 63.861 L900.761 69.791 C898.048 66.794 893.529 66.284 890.217 68.602 886.905 70.92 885.836 75.341 887.723 78.916 889.611 82.491 893.864 84.102 897.646 82.674 901.429 81.247 903.557 77.227 902.611 73.296 L913.634 67.534 C915.763 71.75 919.01 75.299 923.019 77.794 L937.462 86.683 C938.098 87.075 938.902 87.075 939.538 86.683 L953.981 77.794 C957.99 75.299 961.237 71.75 963.366 67.534 L974.389 73.304 C973.551 76.842 975.239 80.494 978.477 82.147 981.714 83.801 985.662 83.028 988.037 80.275 L988.037 112.736 C988.037 113.787 987.62 114.795 986.876 115.538 986.133 116.281 985.125 116.699 984.074 116.699 L892.926 116.699 C891.875 116.699 890.867 116.281 890.124 115.538 889.38 114.795 888.963 113.787 888.963 112.736 L888.963 84.995 C888.963 84.287 888.585 83.633 887.972 83.279 887.359 82.925 886.604 82.925 885.991 83.279 885.378 83.633 885 84.287 885 84.995 L885 112.736 C885 114.838 885.835 116.854 887.321 118.34 888.808 119.827 890.824 120.662 892.926 120.662 L917.461 120.662 913.498 128.588 901.843 128.588 C900.266 128.588 898.754 129.214 897.639 130.329 896.524 131.444 895.898 132.956 895.898 134.532 L895.898 138.495 C895.898 139.021 896.107 139.525 896.479 139.896 896.85 140.268 897.354 140.477 897.88 140.477 L952.37 140.477 C953.078 140.477 953.732 140.099 954.086 139.486 954.44 138.873 954.44 138.117 954.086 137.504 953.732 136.891 953.078 136.514 952.37 136.514 L899.861 136.514 899.861 134.532 C899.861 134.007 900.07 133.503 900.441 133.131 900.813 132.759 901.317 132.551 901.843 132.551 L975.157 132.551 C975.683 132.551 976.187 132.759 976.559 133.131 976.93 133.503 977.139 134.007 977.139 134.532 L977.139 136.514 960.296 136.514 C959.588 136.514 958.934 136.891 958.58 137.504 958.226 138.117 958.226 138.873 958.58 139.486 958.934 140.099 959.588 140.477 960.296 140.477 L979.12 140.477 C979.646 140.477 980.15 140.268 980.521 139.896 980.893 139.525 981.102 139.021 981.102 138.495 L981.102 134.532 C981.102 132.956 980.476 131.444 979.361 130.329 978.246 129.214 976.734 128.588 975.157 128.588 L963.502 128.588 959.539 120.662 984.074 120.662 C986.176 120.662 988.192 119.827 989.679 118.34 991.165 116.854 992 114.838 992 112.736 L992 57.254 C992 55.152 991.165 53.136 989.679 51.65 988.192 50.164 986.176 49.328 984.074 49.328 Z M894.907 33.477 C893.305 33.477 891.859 32.511 891.246 31.03 890.633 29.549 890.972 27.845 892.105 26.711 893.239 25.578 894.943 25.239 896.424 25.852 897.905 26.466 898.87 27.911 898.87 29.514 898.87 30.565 898.453 31.573 897.71 32.316 896.966 33.059 895.958 33.477 894.907 33.477 Z M894.907 79.051 C893.305 79.051 891.859 78.085 891.246 76.604 890.633 75.123 890.972 73.419 892.105 72.285 893.239 71.152 894.943 70.813 896.424 71.426 897.905 72.04 898.87 73.485 898.87 75.088 898.87 76.139 898.453 77.147 897.71 77.89 896.966 78.633 895.958 79.051 894.907 79.051 Z M982.093 79.051 C980.49 79.051 979.045 78.085 978.431 76.604 977.818 75.123 978.157 73.419 979.29 72.285 980.424 71.152 982.128 70.813 983.609 71.426 985.09 72.04 986.056 73.485 986.056 75.088 986.056 76.139 985.638 77.147 984.895 77.89 984.152 78.633 983.144 79.051 982.093 79.051 Z M959.072 128.588 L917.928 128.588 921.891 120.662 955.109 120.662 Z" fill="#464a51" fill-opacity="1" stroke="none"/>
    <path id="Path-95" d="M931.622 30.722 C934.065 29.435 936.37 27.902 938.5 26.145 945.216 31.723 953.559 34.973 962.278 35.409 L962.278 43.384 C962.278 44.092 962.655 44.746 963.268 45.1 963.882 45.454 964.637 45.454 965.25 45.1 965.863 44.746 966.241 44.092 966.241 43.384 L966.241 40.035 976.239 34.81 C978.95 37.808 983.468 38.321 986.781 36.005 990.094 33.69 991.167 29.271 989.283 25.695 987.399 22.119 983.148 20.504 979.365 21.927 975.582 23.35 973.449 27.366 974.389 31.297 L966.241 35.563 966.241 33.477 C966.241 32.951 966.032 32.447 965.66 32.075 965.289 31.704 964.785 31.495 964.259 31.495 955.762 31.49 947.534 28.51 941.003 23.074 L939.768 22.045 C939.033 21.434 937.967 21.434 937.232 22.045 L935.997 23.074 C934.068 24.667 931.98 26.057 929.766 27.221 929.14 27.553 928.739 28.193 928.714 28.9 928.688 29.608 929.042 30.275 929.642 30.651 930.242 31.027 930.997 31.054 931.622 30.722 Z M982.093 25.551 C983.695 25.551 985.141 26.516 985.754 27.997 986.367 29.478 986.028 31.182 984.895 32.316 983.761 33.449 982.057 33.788 980.576 33.175 979.095 32.562 978.13 31.117 978.13 29.514 978.13 28.463 978.547 27.455 979.29 26.711 980.034 25.968 981.042 25.551 982.093 25.551 Z" fill="#464a51" fill-opacity="1" stroke="none"/>
    <path id="Path-96" d="M932.556 69.143 L944.444 69.143 C946.021 69.143 947.533 68.517 948.648 67.402 949.763 66.287 950.389 64.775 950.389 63.199 L950.389 51.31 C950.378 48.8 948.793 46.567 946.426 45.73 L946.426 39.421 C946.426 37.844 945.8 36.332 944.685 35.218 943.57 34.103 942.058 33.477 940.482 33.477 L936.518 33.477 C934.942 33.477 933.43 34.103 932.315 35.218 931.2 36.332 930.574 37.844 930.574 39.421 L930.574 45.73 C928.207 46.567 926.622 48.8 926.611 51.31 L926.611 63.199 C926.611 64.775 927.237 66.287 928.352 67.402 929.467 68.517 930.979 69.143 932.556 69.143 Z M934.537 39.421 C934.537 38.896 934.746 38.392 935.117 38.02 935.489 37.648 935.993 37.44 936.518 37.44 L940.482 37.44 C941.007 37.44 941.511 37.648 941.883 38.02 942.254 38.392 942.463 38.896 942.463 39.421 L942.463 45.366 934.537 45.366 Z M930.574 51.31 C930.574 50.784 930.783 50.28 931.154 49.909 931.526 49.537 932.03 49.328 932.556 49.328 L944.444 49.328 C944.97 49.328 945.474 49.537 945.846 49.909 946.217 50.28 946.426 50.784 946.426 51.31 L946.426 63.199 C946.426 63.724 946.217 64.228 945.846 64.6 945.474 64.972 944.97 65.18 944.444 65.18 L932.556 65.18 C932.03 65.18 931.526 64.972 931.154 64.6 930.783 64.228 930.574 63.724 930.574 63.199 Z" fill="#464a51" fill-opacity="1" stroke="none"/>
    <path id="Path-97" d="M938.5 61.217 C939.026 61.217 939.53 61.009 939.901 60.637 940.273 60.265 940.482 59.761 940.482 59.236 L940.482 55.273 C940.482 54.565 940.104 53.911 939.491 53.557 938.878 53.203 938.122 53.203 937.509 53.557 936.896 53.911 936.518 54.565 936.518 55.273 L936.518 59.236 C936.518 59.761 936.727 60.265 937.099 60.637 937.47 61.009 937.974 61.217 938.5 61.217 Z" fill="#464a51" fill-opacity="1" stroke="none"/>
    <path id="Path-98" d="M918.685 110.754 C919.512 110.755 920.252 110.242 920.542 109.468 L926.486 93.617 C926.734 92.953 926.609 92.208 926.159 91.662 925.708 91.116 925 90.851 924.302 90.968 923.604 91.085 923.021 91.566 922.773 92.23 L918.685 103.13 914.597 92.231 C914.35 91.568 913.767 91.087 913.068 90.97 912.37 90.853 911.662 91.118 911.212 91.664 910.761 92.21 910.636 92.955 910.884 93.619 L916.829 109.47 C917.119 110.244 917.859 110.755 918.685 110.754 Z" fill="#464a51" fill-opacity="1" stroke="none"/>
    <path id="Path-99" d="M934.537 108.773 L934.537 102.828 940.482 102.828 C942.605 102.828 944.568 101.695 945.63 99.856 946.691 98.017 946.691 95.751 945.63 93.912 944.568 92.073 942.605 90.94 940.482 90.94 L936.518 90.94 C934.942 90.94 933.43 91.566 932.315 92.681 931.2 93.795 930.574 95.307 930.574 96.884 L930.574 108.773 C930.574 109.481 930.952 110.135 931.565 110.489 932.178 110.843 932.933 110.843 933.546 110.489 934.159 110.135 934.537 109.481 934.537 108.773 Z M934.537 96.884 C934.537 96.358 934.746 95.854 935.117 95.483 935.489 95.111 935.993 94.903 936.518 94.903 L940.482 94.903 C941.576 94.903 942.463 95.79 942.463 96.884 942.463 97.978 941.576 98.865 940.482 98.865 L934.537 98.865 Z" fill="#464a51" fill-opacity="1" stroke="none"/>
    <path id="Path-100" d="M954.352 108.773 L954.352 98.865 962.674 109.962 C963.048 110.461 963.636 110.754 964.259 110.754 964.472 110.754 964.683 110.72 964.885 110.653 965.695 110.384 966.241 109.626 966.241 108.773 L966.241 92.921 C966.241 92.213 965.863 91.559 965.25 91.205 964.637 90.851 963.882 90.851 963.268 91.205 962.655 91.559 962.278 92.213 962.278 92.921 L962.278 102.828 953.956 91.732 C953.444 91.05 952.553 90.772 951.744 91.041 950.935 91.311 950.389 92.068 950.389 92.921 L950.389 108.773 C950.389 109.481 950.767 110.135 951.38 110.489 951.993 110.843 952.748 110.843 953.361 110.489 953.974 110.135 954.352 109.481 954.352 108.773 Z" fill="#464a51" fill-opacity="1" stroke="none"/>
    <path id="Path-101" d="M982.093 100.847 C982.093 98.443 980.644 96.275 978.423 95.355 976.202 94.435 973.645 94.944 971.945 96.644 970.245 98.344 969.736 100.901 970.656 103.122 971.576 105.343 973.744 106.791 976.148 106.791 977.725 106.791 979.237 106.165 980.352 105.05 981.466 103.936 982.093 102.424 982.093 100.847 Z M974.167 100.847 C974.167 100.046 974.649 99.323 975.39 99.016 976.13 98.71 976.983 98.879 977.549 99.446 978.116 100.013 978.285 100.865 977.979 101.605 977.672 102.346 976.95 102.828 976.148 102.828 975.623 102.828 975.119 102.62 974.747 102.248 974.375 101.876 974.167 101.372 974.167 100.847 Z" fill="#464a51" fill-opacity="1" stroke="none"/>
    <path id="Path-102" d="M906.796 100.847 C906.796 98.443 905.348 96.275 903.127 95.355 900.905 94.435 898.349 94.944 896.648 96.644 894.948 98.344 894.44 100.901 895.36 103.122 896.28 105.343 898.448 106.791 900.852 106.791 902.428 106.791 903.94 106.165 905.055 105.05 906.17 103.936 906.796 102.424 906.796 100.847 Z M898.87 100.847 C898.87 100.046 899.353 99.323 900.094 99.016 900.834 98.71 901.686 98.879 902.253 99.446 902.82 100.013 902.989 100.865 902.682 101.605 902.376 102.346 901.653 102.828 900.852 102.828 900.326 102.828 899.822 102.62 899.451 102.248 899.079 101.876 898.87 101.372 898.87 100.847 Z" fill="#464a51" fill-opacity="1" stroke="none"/>
   </g>
  </g>
 </g>
 <g id="upload-copy-1">
  <path id="Path-103" d="M1078.707 114.205 L1104.201 82.337 1078.707 50.47 1078.707 63.217 1029.844 63.217 1029.844 101.458 1078.707 101.458 Z" fill="#f9e109" fill-opacity="1" stroke="none"/>
  <path id="Path-104" d="M1065.96 82.337 L1104.201 82.337 1078.707 50.47 1078.707 63.217 1029.844 63.217 1029.844 101.458 1034.093 101.458 C1040.37 89.689 1052.622 82.337 1065.96 82.337 Z" fill="#fcbc04" fill-opacity="1" stroke="none"/>
  <g id="group-14">
   <path id="Path-105" d="M1078.006 116.201 C1078.856 116.498 1079.801 116.225 1080.364 115.522 L1105.858 83.655 C1106.468 82.883 1106.468 81.792 1105.858 81.02 L1080.364 49.152 C1079.801 48.449 1078.856 48.176 1078.006 48.473 1077.156 48.769 1076.586 49.57 1076.583 50.47 L1076.583 61.092 1029.844 61.092 C1028.67 61.092 1027.719 62.043 1027.719 63.217 L1027.719 75.964 C1027.774 101.436 1028.67 87.648 1029.844 87.648 1031.017 87.648 1031.968 90.149 1031.968 88.976 L1031.968 65.341 1078.707 65.341 C1079.88 65.341 1080.832 64.39 1080.832 63.217 L1080.832 56.525 1101.481 82.337 1080.832 108.15 1080.832 101.458 C1080.832 100.284 1079.88 99.333 1078.707 99.333 L1031.968 99.333 1031.968 88.711 C1031.968 87.537 1031.017 86.586 1029.844 86.586 1028.67 86.586 1027.719 87.537 1027.719 88.711 L1027.719 101.458 C1027.719 102.631 1028.67 103.582 1029.844 103.582 L1076.583 103.582 1076.583 114.205 C1076.586 115.105 1077.156 115.905 1078.006 116.201 Z" fill="#39519d" fill-opacity="1" stroke="none"/>
  </g>
 </g>
 <g id="radio-antenna">
  <g id="Color-3">
   <g id="group-15">
    <path id="Path-106" d="M661 106.992 L717.012 106.992 717.012 143 661 143 Z" fill="#d0d8da" fill-opacity="1" stroke="none"/>
    <path id="Path-107" d="M683.005 136.998 C678.761 136.998 674.69 135.312 671.689 132.311 668.688 129.31 667.002 125.239 667.002 120.995 L667.002 106.992 661 106.992 661 143 717.012 143 717.012 136.998 Z" fill="#93999a" fill-opacity="1" stroke="none"/>
    <path id="Path-108" d="M713.011 53.851 C713.011 58.271 709.429 61.853 705.009 61.853 700.59 61.853 697.008 58.271 697.008 53.851 697.008 49.432 700.59 45.85 705.009 45.85 709.429 45.85 713.011 49.432 713.011 53.851 Z" fill="#f9e109" fill-opacity="1" stroke="none"/>
    <path id="Path-109" d="M693.007 118.995 L717.012 118.995 717.012 130.997 693.007 130.997 Z" fill="#57b7eb" fill-opacity="1" stroke="none"/>
    <path id="Path-110" d="M669.002 118.995 L685.005 118.995 685.005 143 669.002 143 Z" fill="#f9e109" fill-opacity="1" stroke="none"/>
    <path id="Path-111" d="M673.003 96.99 C673.003 99.2 671.212 100.991 669.002 100.991 666.792 100.991 665.001 99.2 665.001 96.99 665.001 94.781 666.792 92.989 669.002 92.989 671.212 92.989 673.003 94.781 673.003 96.99 Z" fill="#f9e109" fill-opacity="1" stroke="none"/>
    <g id="group-16">
     <path id="Path-112" d="M709.01 57.852 C706.292 57.862 703.756 56.487 702.283 54.203 700.809 51.92 700.6 49.042 701.729 46.57 698.481 48.027 696.588 51.456 697.086 54.981 697.585 58.506 700.355 61.276 703.88 61.775 707.404 62.273 710.834 60.38 712.291 57.132 711.261 57.604 710.143 57.849 709.01 57.852 Z" fill="#fcbc04" fill-opacity="1" stroke="none"/>
     <path id="Path-113" d="M671.002 98.991 C669.643 98.996 668.375 98.309 667.638 97.167 666.901 96.025 666.797 94.586 667.362 93.349 665.73 94.075 664.777 95.793 665.025 97.561 665.273 99.329 666.663 100.719 668.431 100.967 670.199 101.215 671.917 100.262 672.643 98.631 672.128 98.866 671.569 98.989 671.002 98.991 Z" fill="#fcbc04" fill-opacity="1" stroke="none"/>
     <path id="Path-114" d="M669.002 118.995 L669.002 122.995 C672.185 122.995 675.238 124.26 677.489 126.511 679.74 128.762 681.005 131.815 681.005 134.998 L681.005 143 685.005 143 685.005 118.995 Z" fill="#fcbc04" fill-opacity="1" stroke="none"/>
     <path id="Path-115" d="M683.005 136.998 C677.182 136.997 671.819 133.833 669.002 128.737 L669.002 143 685.005 143 685.005 136.998 Z" fill="#fcbc04" fill-opacity="1" stroke="none"/>
    </g>
    <path id="Path-116" d="M681.005 136.86 L681.005 143 685.005 143 685.005 136.998 683.005 136.998 C682.336 136.994 681.668 136.948 681.005 136.86 Z" fill="#e59730" fill-opacity="1" stroke="none"/>
    <path id="Path-117" d="M705.009 126.996 C702.887 126.996 700.852 126.153 699.351 124.653 697.851 123.152 697.008 121.117 697.008 118.995 L693.007 118.995 693.007 130.997 717.012 130.997 712.345 126.996 Z" fill="#4891d3" fill-opacity="1" stroke="none"/>
    <path id="Path-118" d="M717.012 126.996 L717.012 118.995 703.009 118.995 712.345 126.996 Z" fill="#aae1f9" fill-opacity="1" stroke="none"/>
   </g>
  </g>
  <g id="Outline">
   <g id="group-17">
    <path id="Path-119" d="M712.435 60.489 C714.84 57.834 715.632 54.092 714.509 50.69 713.387 47.289 710.522 44.753 707.01 44.051 L707.01 36.978 C707.01 36.263 706.629 35.603 706.01 35.246 705.391 34.888 704.628 34.888 704.009 35.246 703.39 35.603 703.009 36.263 703.009 36.978 L703.009 44.051 C699.496 44.753 696.632 47.289 695.509 50.69 694.387 54.092 695.179 57.834 697.584 60.489 L684.497 98.116 684.511 98.116 C684.356 98.548 684.356 99.019 684.511 99.451 684.797 100.238 685.542 100.764 686.38 100.769 L722.285 100.991 734.938 137.366 725.788 130.365 C725.223 129.899 724.449 129.779 723.77 130.052 723.091 130.325 722.615 130.947 722.529 131.673 722.443 132.4 722.76 133.116 723.357 133.54 L737.802 144.586 C738.504 145.12 739.472 145.132 740.186 144.615 740.901 144.098 741.192 143.175 740.905 142.341 Z M705.009 79.387 L700.747 72.985 709.274 72.985 Z M702.357 82.619 L690.68 92.517 696.946 74.514 Z M698.864 68.984 L700.955 62.983 C703.531 64.154 706.488 64.154 709.064 62.983 L711.155 68.984 Z M705.009 47.85 C707.541 47.839 709.804 49.425 710.658 51.808 711.512 54.19 710.772 56.853 708.81 58.452 L708.782 58.476 C706.601 60.306 703.422 60.306 701.241 58.476 L701.213 58.452 C699.251 56.853 698.511 54.19 699.365 51.808 700.219 49.425 702.482 47.839 705.013 47.85 Z M691.807 96.804 L704.985 85.636 717.722 96.958 Z M707.646 82.649 L713.079 74.5 719.612 93.287 Z" fill="#323232" fill-opacity="1" stroke="none"/>
    <path id="Path-120" d="M688.864 67.996 C689.649 68.754 690.897 68.743 691.668 67.972 692.44 67.2 692.451 65.953 691.693 65.168 688.691 62.166 687.005 58.096 687.005 53.851 687.005 49.607 688.691 45.536 691.693 42.535 692.451 41.75 692.44 40.502 691.668 39.731 690.897 38.959 689.649 38.948 688.864 39.706 681.052 47.519 681.052 60.184 688.864 67.996 Z" fill="#323232" fill-opacity="1" stroke="none"/>
    <path id="Path-121" d="M718.326 67.996 C719.107 68.777 720.374 68.777 721.155 67.996 728.967 60.184 728.967 47.519 721.155 39.706 720.37 38.948 719.122 38.959 718.35 39.731 717.579 40.502 717.568 41.75 718.326 42.535 721.328 45.536 723.014 49.607 723.014 53.851 723.014 58.096 721.328 62.166 718.326 65.168 717.545 65.949 717.545 67.215 718.326 67.996 Z" fill="#323232" fill-opacity="1" stroke="none"/>
    <path id="Path-122" d="M681.793 75.07 C682.578 75.828 683.825 75.817 684.597 75.045 685.368 74.274 685.379 73.026 684.621 72.241 674.482 62.078 674.482 45.625 684.621 35.462 685.141 34.959 685.35 34.216 685.167 33.516 684.984 32.817 684.438 32.271 683.738 32.088 683.039 31.904 682.295 32.113 681.793 32.633 670.092 44.359 670.092 63.344 681.793 75.07 Z" fill="#323232" fill-opacity="1" stroke="none"/>
    <path id="Path-123" d="M725.398 72.241 C724.878 72.743 724.669 73.487 724.852 74.187 725.035 74.886 725.581 75.432 726.281 75.615 726.98 75.798 727.724 75.59 728.226 75.07 739.927 63.344 739.927 44.359 728.226 32.633 727.441 31.875 726.194 31.886 725.422 32.657 724.65 33.429 724.639 34.677 725.398 35.462 735.537 45.625 735.537 62.078 725.398 72.241 Z" fill="#323232" fill-opacity="1" stroke="none"/>
    <path id="Path-124" d="M676.133 82.727 C676.942 82.727 677.672 82.24 677.981 81.492 678.291 80.745 678.12 79.885 677.548 79.313 663.509 65.241 663.509 42.462 677.548 28.39 678.306 27.605 678.295 26.358 677.523 25.586 676.752 24.814 675.504 24.803 674.719 25.562 659.12 41.196 659.12 66.507 674.719 82.141 675.094 82.516 675.603 82.727 676.133 82.727 Z" fill="#323232" fill-opacity="1" stroke="none"/>
    <path id="Path-125" d="M732.471 79.313 C731.951 79.815 731.742 80.559 731.926 81.258 732.109 81.957 732.655 82.504 733.354 82.687 734.054 82.87 734.797 82.661 735.3 82.141 750.899 66.507 750.899 41.196 735.3 25.562 734.515 24.803 733.267 24.814 732.495 25.586 731.724 26.358 731.713 27.605 732.471 28.39 746.51 42.462 746.51 65.241 732.471 79.313 Z" fill="#323232" fill-opacity="1" stroke="none"/>
    <path id="Path-126" d="M717.012 104.992 L671.002 104.992 671.002 102.623 C673.758 101.649 675.411 98.831 674.917 95.951 674.423 93.07 671.925 90.964 669.002 90.964 666.079 90.964 663.581 93.07 663.087 95.951 662.593 98.831 664.246 101.649 667.002 102.623 L667.002 104.992 661 104.992 C660.47 104.992 659.961 105.203 659.586 105.578 659.211 105.953 659 106.462 659 106.992 L659 114.994 C659 115.709 659.381 116.369 660 116.726 660.619 117.084 661.382 117.084 662.001 116.726 662.62 116.369 663.001 115.709 663.001 114.994 L663.001 108.993 715.011 108.993 715.011 116.994 693.007 116.994 C692.476 116.994 691.968 117.205 691.592 117.58 691.217 117.955 691.007 118.464 691.007 118.995 L691.007 130.997 C691.007 131.528 691.217 132.036 691.592 132.412 691.968 132.787 692.476 132.998 693.007 132.998 L707.01 132.998 C707.724 132.998 708.385 132.616 708.742 131.997 709.1 131.378 709.1 130.616 708.742 129.997 708.385 129.378 707.724 128.997 707.01 128.997 L695.007 128.997 695.007 120.995 702.271 120.995 715.011 131.917 715.011 140.999 687.006 140.999 687.006 118.995 C687.006 118.464 686.795 117.955 686.42 117.58 686.045 117.205 685.536 116.994 685.005 116.994 L669.002 116.994 C668.471 116.994 667.963 117.205 667.588 117.58 667.212 117.955 667.002 118.464 667.002 118.995 L667.002 134.998 C667.002 135.713 667.383 136.373 668.002 136.73 668.621 137.088 669.383 137.088 670.002 136.73 670.621 136.373 671.002 135.713 671.002 134.998 L671.002 120.995 683.005 120.995 683.005 126.996 681.005 126.996 C680.29 126.996 679.629 127.378 679.272 127.997 678.915 128.615 678.915 129.378 679.272 129.997 679.629 130.616 680.29 130.997 681.005 130.997 L683.005 130.997 683.005 140.999 663.001 140.999 663.001 122.995 C663.001 122.281 662.62 121.62 662.001 121.263 661.382 120.906 660.619 120.906 660 121.263 659.381 121.62 659 122.281 659 122.995 L659 143 C659 143.53 659.211 144.039 659.586 144.414 659.961 144.789 660.47 145 661 145 L717.012 145 C717.542 145 718.051 144.789 718.426 144.414 718.802 144.039 719.012 143.53 719.012 143 L719.012 106.992 C719.012 106.462 718.802 105.953 718.426 105.578 718.051 105.203 717.542 104.992 717.012 104.992 Z M669.002 94.99 C669.811 94.99 670.541 95.477 670.85 96.225 671.16 96.972 670.989 97.833 670.417 98.405 669.844 98.977 668.984 99.148 668.237 98.838 667.489 98.529 667.002 97.799 667.002 96.99 667.002 96.46 667.212 95.951 667.588 95.576 667.963 95.201 668.471 94.99 669.002 94.99 Z M708.41 120.995 L715.011 120.995 715.011 126.648 Z" fill="#323232" fill-opacity="1" stroke="none"/>
   </g>
  </g>
 </g>
</svg>
